<?xml version="1.0" encoding="UTF-8"?>
<svg width="1440px" height="854px" viewBox="0 0 1440 854" version="1.1" xmlns="http://www.w3.org/2000/svg" xmlns:xlink="http://www.w3.org/1999/xlink">
    <!-- Generator: Sketch 54.1 (76490) - https://sketchapp.com -->
    <title>09</title>
    <desc>Created with Sketch.</desc>
    <defs>
        <linearGradient x1="98.9482%" y1="31.289679%" x2="1.0518%" y2="68.710321%" id="linearGradient-1">
            <stop stop-color="#6D4BF8" offset="0%"></stop>
            <stop stop-color="#3C7BFC" offset="100%"></stop>
        </linearGradient>
        <path d="M1831.9995,1037.99766 C1685.18265,965.02594 1561.8529,1011.78858 1470.9988,1063.99829 C1364.65145,1125.11081 1192.5234,1069.66356 1101.99845,1043.99821 C1011.4735,1018.33287 983.2217,986.139201 734.9991,1103.99844 C561.23255,1186.5054 476.92375,1120.86652 384.99955,1023.14839 L384.99955,302.998411 L1831.9995,302.998411 L1831.9995,1037.99766 Z" id="path-2"></path>
        <linearGradient x1="100%" y1="-97.3035811%" x2="0%" y2="197.303581%" id="linearGradient-3">
            <stop stop-color="#5D39EF" offset="0%"></stop>
            <stop stop-color="#4B9BFF" offset="100%"></stop>
        </linearGradient>
        <path d="M1831.9995,1058.9984 C1685.18265,986.02698 1580.85225,1012.78846 1489.99815,1064.99756 C1383.65225,1126.1105 1240.88815,1075.13265 1102.4639,1056.69117 C1014.881,1045.02246 984.31065,1007.18247 734.9991,1124.9982 C561.08175,1207.18491 476.92375,1101.86599 384.99955,1004.14884 L384.99955,302.998508 L1831.9995,302.998508 L1831.9995,1058.9984 Z" id="path-4"></path>
        <linearGradient x1="97.3055217%" y1="100%" x2="3.42246996%" y2="8.58205075%" id="linearGradient-5">
            <stop stop-color="#31F3FF" offset="0%"></stop>
            <stop stop-color="#5D5EF7" stop-opacity="0" offset="100%"></stop>
            <stop stop-color="#31F3FF" offset="100%"></stop>
        </linearGradient>
        <path d="M452.975731,46.8286 C558.737036,108.900233 624.733343,154.301316 795.998424,362.999338 C947.031774,547.046526 918.654776,769.008695 746.904756,777.092563 C542.271886,786.726954 453.558417,565.775808 263.997565,962.998868 C209.302899,1077.61349 195.140023,655.789225 131.147055,577.92319 C1.396928,420.042831 161.184803,360.779835 136.531681,331.085755 C111.880457,301.391675 304.626153,114.986872 325.360854,75.638979 C346.09081,36.291086 376.170314,1.750138 452.975731,46.8286 Z" id="path-6"></path>
    </defs>
    <g id="Page-1" stroke="none" stroke-width="1" fill="none" fill-rule="evenodd">
        <g id="09">
            <g id="bg" transform="translate(-392.000000, -304.000000)">
                <g id="Shape-1">
                    <use fill="#0084FF" xlink:href="#path-2"></use>
                    <use fill="url(#linearGradient-1)" xlink:href="#path-2"></use>
                </g>
                <path d="M389.99824,911.589484 C434.87176,1000.02352 514.538548,1110.98272 631.998136,1083.99827 C779.999302,1049.99898 875.998444,1045.99776 1027.99826,1048.99882 C1166.18742,1051.7254 1306.11635,1024.74843 1472.86079,1064.75014 C1352.78502,1133.69536 1233.98531,1073.54642 1107.46414,1056.69089 C1019.88041,1045.02212 989.309512,1007.18247 739.997578,1124.99804 C566.08228,1207.18507 481.923796,1138.71556 389.99824,1040.99818 L389.99824,911.589484 Z" id="Shape-799" fill="#FFFFFF" opacity="0.1"></path>
                <g id="Shape-1-copy-8" opacity="0.3">
                    <use fill="#0084FF" xlink:href="#path-4"></use>
                    <use fill="url(#linearGradient-3)" xlink:href="#path-4"></use>
                </g>
                <g id="Shape-655-copy-2">
                    <use fill-opacity="0" fill="#32323D" xlink:href="#path-6"></use>
                    <use fill="url(#linearGradient-5)" xlink:href="#path-6"></use>
                </g>
                <path d="M437.999389,481.997853 C446.283082,481.997853 452.999341,488.714013 452.999341,496.998366 C452.999341,505.282389 446.283082,511.997922 437.999389,511.997922 C429.713815,511.997922 422.999272,505.282389 422.999272,496.998366 C422.999272,488.714013 429.713815,481.997853 437.999389,481.997853 Z" id="Ellipse-777" fill="#FFFFFF" opacity="0.1"></path>
                <path d="M509.9983,879.997985 C518.282158,879.997985 524.998252,886.714178 524.998252,894.998201 C524.998252,903.282851 518.282158,909.998384 509.9983,909.998384 C501.714442,909.998384 494.998348,903.282851 494.998348,894.998201 C494.998348,886.714178 501.714442,879.997985 509.9983,879.997985 Z" id="Ellipse-777-copy" fill="#5447F0"></path>
                <path d="M434.998066,666.998316 C438.864053,666.998316 441.997918,670.132725 441.997918,673.998525 C441.997918,677.864631 438.864053,680.998717 434.998066,680.998717 C431.131909,680.998717 427.998061,677.864631 427.998061,673.998525 C427.998061,670.132725 431.131909,666.998316 434.998066,666.998316 Z" id="Ellipse-777-copy-4" fill="#FFFFFF" opacity="0.1"></path>
                <path d="M510.998746,554.998622 C514.864903,554.998622 517.998411,558.132708 517.998411,561.998185 C517.998411,565.863662 514.864903,568.997748 510.998746,568.997748 C507.132419,568.997748 503.998741,565.863662 503.998741,561.998185 C503.998741,558.132708 507.132419,554.998622 510.998746,554.998622 Z" id="Ellipse-777-copy-5" fill="#FFFFFF" opacity="0.1"></path>
                <path d="M804.998542,874.998673 C808.865056,874.998673 811.998564,878.132759 811.998564,881.998236 C811.998564,885.864665 808.865056,888.998751 804.998542,888.998751 C801.132572,888.998751 797.998894,885.864665 797.998894,881.998236 C797.998894,878.132759 801.132572,874.998673 804.998542,874.998673 Z" id="Ellipse-777-copy-6" fill="#FFFFFF" opacity="0.1"></path>
                <path d="M1572.99953,443.998078 C1576.86415,443.998078 1579.99902,447.132487 1579.99902,450.998916 C1579.99902,454.864393 1576.86415,457.998479 1572.99953,457.998479 C1569.13303,457.998479 1565.99798,454.864393 1565.99798,450.998916 C1565.99798,447.132487 1569.13303,443.998078 1572.99953,443.998078 Z" id="Ellipse-777-copy-11" fill="#FFFFFF" opacity="0.1"></path>
                <path d="M908.998729,1003.99849 C912.864716,1003.99849 915.998394,1007.13289 915.998394,1010.99805 C915.998394,1014.86385 912.864716,1017.99793 908.998729,1017.99793 C905.132232,1017.99793 901.998724,1014.86385 901.998724,1010.99805 C901.998724,1007.13289 905.132232,1003.99849 908.998729,1003.99849 Z" id="Ellipse-777-copy-7" fill="#FFFFFF" opacity="0.1"></path>
                <path d="M629.49917,1035.99818 C632.536722,1035.99818 634.999364,1038.46011 634.999364,1041.49868 C634.999364,1044.53566 632.536722,1046.99854 629.49917,1046.99854 C626.461786,1046.99854 623.999312,1044.53566 623.999312,1041.49868 C623.999312,1038.46011 626.461786,1035.99818 629.49917,1035.99818 Z" id="Ellipse-777-copy-8" fill="#FFFFFF" opacity="0.1"></path>
                <path d="M689.497742,926.998514 C692.535462,926.998514 694.997768,929.460764 694.997768,932.498386 C694.997768,935.535994 692.535462,937.998566 689.497742,937.998566 C686.46019,937.998566 683.997884,935.535994 683.997884,932.498386 C683.997884,929.460764 686.46019,926.998514 689.497742,926.998514 Z" id="Ellipse-777-copy-9" fill="#FF8BD1" opacity="0.4"></path>
                <path d="M902.49809,769.99854 C909.95471,769.99854 915.99839,776.04318 915.99839,783.49839 C915.99839,790.95456 909.95471,796.99794 902.49809,796.99794 C895.04318,796.99794 888.99797,790.95456 888.99797,783.49839 C888.99797,776.04318 895.04318,769.99854 902.49809,769.99854 Z" id="Ellipse-777-copy-2" fill="#FFFFFF" opacity="0.1"></path>
                <path d="M788.998162,394.998276 C793.968967,394.998276 797.998888,399.027399 797.998888,403.998393 C797.998888,408.968736 793.968967,412.997565 788.998162,412.997565 C784.027546,412.997565 779.999158,408.968736 779.999158,403.998393 C779.999158,399.027399 784.027546,394.998276 788.998162,394.998276 Z" id="Ellipse-777-copy-3" fill="#5447F0"></path>
            </g>
        </g>
    </g>
</svg>