<svg xmlns="http://www.w3.org/2000/svg" xmlns:xlink="http://www.w3.org/1999/xlink" viewBox="0 0 608.52 451.51"><defs><style>.cls-1{fill:url(#linear-gradient);}.cls-2{fill:url(#linear-gradient-2);}.cls-3{fill:url(#linear-gradient-3);}.cls-4{fill:url(#linear-gradient-4);}.cls-5{fill:#fff;}.cls-6{fill:url(#linear-gradient-5);}.cls-7{fill:url(#linear-gradient-6);}.cls-8{fill:url(#linear-gradient-7);}.cls-9{fill:url(#linear-gradient-8);}.cls-10{fill:url(#linear-gradient-9);}.cls-11{fill:url(#linear-gradient-10);}.cls-12{fill:url(#linear-gradient-11);}.cls-13{fill:url(#linear-gradient-12);}.cls-14{fill:url(#linear-gradient-13);}.cls-15{fill:url(#linear-gradient-14);}.cls-16{fill:url(#linear-gradient-15);}.cls-17{fill:url(#linear-gradient-16);}.cls-18{fill:url(#linear-gradient-17);}.cls-19{fill:url(#linear-gradient-18);}.cls-20{fill:url(#linear-gradient-19);}.cls-21{fill:url(#linear-gradient-20);}.cls-22{fill:url(#linear-gradient-21);}.cls-23{fill:url(#linear-gradient-22);}.cls-24{fill:url(#linear-gradient-23);}.cls-25{fill:url(#linear-gradient-24);}.cls-26{fill:url(#linear-gradient-25);}.cls-27{fill:url(#linear-gradient-26);}.cls-28{fill:url(#linear-gradient-27);}.cls-29{fill:url(#linear-gradient-28);}.cls-30{fill:url(#linear-gradient-29);}.cls-31{fill:url(#linear-gradient-30);}.cls-32{fill:url(#linear-gradient-31);}.cls-33{fill:url(#linear-gradient-32);}.cls-34{fill:url(#linear-gradient-33);}.cls-35{fill:url(#linear-gradient-34);}.cls-36{fill:url(#linear-gradient-35);}.cls-37{fill:url(#linear-gradient-36);}.cls-38{fill:url(#linear-gradient-37);}.cls-39{fill:url(#linear-gradient-38);}.cls-40{fill:url(#linear-gradient-39);}.cls-41{fill:url(#linear-gradient-40);}.cls-42{fill:url(#linear-gradient-41);}.cls-43{fill:url(#linear-gradient-42);}.cls-44{fill:url(#linear-gradient-43);}.cls-45{fill:url(#linear-gradient-44);}.cls-46{fill:url(#linear-gradient-45);}.cls-47{fill:url(#linear-gradient-46);}.cls-48{fill:url(#linear-gradient-47);}.cls-49{fill:url(#linear-gradient-48);}.cls-50{fill:url(#linear-gradient-49);}.cls-51{fill:url(#linear-gradient-50);}.cls-52{fill:url(#linear-gradient-51);}.cls-53{fill:url(#linear-gradient-52);}.cls-54{fill:url(#linear-gradient-53);}.cls-55{fill:url(#linear-gradient-54);}.cls-56{fill:url(#linear-gradient-55);}.cls-57{fill:url(#linear-gradient-56);}.cls-58{fill:url(#linear-gradient-57);}.cls-59{fill:url(#linear-gradient-58);}.cls-60{fill:url(#linear-gradient-59);}.cls-61{fill:url(#linear-gradient-60);}.cls-62{fill:url(#linear-gradient-61);}.cls-63{fill:url(#linear-gradient-62);}.cls-64{fill:url(#linear-gradient-63);}.cls-65{fill:url(#linear-gradient-64);}.cls-66{fill:url(#linear-gradient-65);}.cls-67{fill:url(#linear-gradient-66);}.cls-68{fill:url(#linear-gradient-67);}.cls-69{fill:url(#linear-gradient-68);}.cls-70{fill:url(#linear-gradient-69);}.cls-71{fill:url(#linear-gradient-70);}.cls-72{fill:url(#linear-gradient-71);}.cls-73{fill:url(#linear-gradient-72);}.cls-74{fill:url(#linear-gradient-73);}.cls-75{fill:url(#linear-gradient-74);}.cls-76{fill:url(#linear-gradient-75);}.cls-77{fill:url(#linear-gradient-76);}.cls-78{fill:url(#linear-gradient-77);}.cls-79{fill:url(#linear-gradient-78);}.cls-80{fill:url(#linear-gradient-79);}.cls-81{fill:url(#linear-gradient-80);}.cls-82{fill:url(#linear-gradient-81);}.cls-83{fill:url(#linear-gradient-82);}.cls-84{fill:url(#linear-gradient-83);}.cls-85{fill:url(#linear-gradient-84);}.cls-86{fill:url(#linear-gradient-85);}.cls-87{fill:url(#linear-gradient-86);}.cls-88{fill:url(#linear-gradient-87);}.cls-89{fill:url(#linear-gradient-88);}.cls-90{fill:url(#linear-gradient-89);}.cls-91{fill:url(#linear-gradient-90);}.cls-92{fill:url(#linear-gradient-91);}.cls-93{fill:url(#linear-gradient-92);}.cls-94{fill:url(#linear-gradient-93);}.cls-95{fill:url(#linear-gradient-94);}.cls-96{fill:url(#linear-gradient-95);}.cls-97{fill:url(#linear-gradient-96);}.cls-98{fill:url(#linear-gradient-97);}.cls-99{fill:url(#linear-gradient-98);}.cls-100{fill:url(#linear-gradient-99);}.cls-101{fill:url(#linear-gradient-100);}.cls-102{fill:url(#linear-gradient-101);}.cls-103{fill:url(#linear-gradient-102);}.cls-104{fill:url(#linear-gradient-103);}.cls-105{fill:url(#linear-gradient-104);}.cls-106{fill:url(#linear-gradient-105);}.cls-107{fill:url(#linear-gradient-106);}.cls-108{fill:url(#linear-gradient-107);}.cls-109{fill:url(#linear-gradient-108);}.cls-110{fill:url(#linear-gradient-109);}.cls-111{fill:url(#linear-gradient-110);}.cls-112{fill:url(#linear-gradient-111);}</style><linearGradient id="linear-gradient" x1="438.34" y1="492.48" x2="183.47" y2="51.03" gradientUnits="userSpaceOnUse"><stop offset="0" stop-color="#e3e5f3"/><stop offset="0.57" stop-color="#f1f6fb"/><stop offset="1" stop-color="#f7fcfe"/></linearGradient><linearGradient id="linear-gradient-2" x1="366.58" y1="172.39" x2="262.24" y2="112.14" gradientUnits="userSpaceOnUse"><stop offset="0" stop-color="#b9aaff"/><stop offset="1" stop-color="#c0bfff"/></linearGradient><linearGradient id="linear-gradient-3" x1="512.92" y1="400.76" x2="405.87" y2="215.34" gradientUnits="userSpaceOnUse"><stop offset="0" stop-color="#ffbfd4"/><stop offset="0.19" stop-color="#ffbcd3"/><stop offset="0.34" stop-color="#ffb2d1"/><stop offset="0.47" stop-color="#ffa2ce"/><stop offset="0.6" stop-color="#ff8ac8"/><stop offset="0.71" stop-color="#ff6cc2"/><stop offset="0.83" stop-color="#ff48ba"/><stop offset="0.94" stop-color="#ff1db0"/><stop offset="1" stop-color="#f0a"/></linearGradient><linearGradient id="linear-gradient-4" x1="389.08" y1="243.76" x2="529.71" y2="243.76" gradientUnits="userSpaceOnUse"><stop offset="0" stop-color="#ffbfeb"/><stop offset="1" stop-color="#fff"/></linearGradient><linearGradient id="linear-gradient-5" x1="421.34" y1="433.02" x2="247.66" y2="132.18" gradientUnits="userSpaceOnUse"><stop offset="0" stop-color="#e5edff"/><stop offset="0.15" stop-color="#e7efff"/><stop offset="1" stop-color="#e9f1ff"/></linearGradient><linearGradient id="linear-gradient-6" x1="222.33" y1="170.1" x2="446.67" y2="170.1" gradientUnits="userSpaceOnUse"><stop offset="0" stop-color="#3f46ff"/><stop offset="1" stop-color="#5560ff"/></linearGradient><linearGradient id="linear-gradient-7" x1="282.63" y1="453.21" x2="385.05" y2="275.82" gradientUnits="userSpaceOnUse"><stop offset="0" stop-color="#ffbfd4"/><stop offset="0.39" stop-color="#ffbdd4"/><stop offset="0.54" stop-color="#ffb6d2"/><stop offset="0.64" stop-color="#ffabcf"/><stop offset="0.72" stop-color="#ff9acc"/><stop offset="0.79" stop-color="#ff84c7"/><stop offset="0.85" stop-color="#ff68c1"/><stop offset="0.91" stop-color="#ff48ba"/><stop offset="0.96" stop-color="#ff24b2"/><stop offset="1" stop-color="#f0a"/></linearGradient><linearGradient id="linear-gradient-8" x1="200.9" y1="422.56" x2="200.9" y2="201.57" gradientUnits="userSpaceOnUse"><stop offset="0" stop-color="#9a7fff"/><stop offset="1" stop-color="#c0bfff"/></linearGradient><linearGradient id="linear-gradient-9" x1="161.39" y1="422.56" x2="161.39" y2="240.41" gradientUnits="userSpaceOnUse"><stop offset="0" stop-color="#c0bfff"/><stop offset="1" stop-color="#e9eaff"/></linearGradient><linearGradient id="linear-gradient-10" x1="125.23" y1="422.56" x2="125.23" y2="282.6" xlink:href="#linear-gradient-8"/><linearGradient id="linear-gradient-11" x1="90.07" y1="422.56" x2="90.07" y2="320.1" xlink:href="#linear-gradient-9"/><linearGradient id="linear-gradient-12" x1="55.25" y1="422.56" x2="55.25" y2="360.95" xlink:href="#linear-gradient-8"/><linearGradient id="linear-gradient-13" x1="18.75" y1="422.56" x2="18.75" y2="388.41" xlink:href="#linear-gradient-9"/><linearGradient id="linear-gradient-14" x1="261.93" y1="250.71" x2="274.18" y2="250.71" gradientUnits="userSpaceOnUse"><stop offset="0" stop-color="#ffbfd4"/><stop offset="0.22" stop-color="#ff9acc"/><stop offset="0.7" stop-color="#ff3db7"/><stop offset="1" stop-color="#f0a"/></linearGradient><linearGradient id="linear-gradient-15" x1="276.56" y1="250.71" x2="288.81" y2="250.71" gradientUnits="userSpaceOnUse"><stop offset="0" stop-color="#1517ff"/><stop offset="0.19" stop-color="#3038ff"/><stop offset="0.4" stop-color="#4955ff"/><stop offset="0.61" stop-color="#5c6bff"/><stop offset="0.81" stop-color="#6678ff"/><stop offset="1" stop-color="#6a7cff"/></linearGradient><linearGradient id="linear-gradient-16" x1="291.78" y1="250.71" x2="304.03" y2="250.71" xlink:href="#linear-gradient-14"/><linearGradient id="linear-gradient-17" x1="307" y1="250.71" x2="319.25" y2="250.71" xlink:href="#linear-gradient-15"/><linearGradient id="linear-gradient-18" x1="322.22" y1="250.71" x2="334.46" y2="250.71" xlink:href="#linear-gradient-14"/><linearGradient id="linear-gradient-19" x1="337.43" y1="250.71" x2="349.69" y2="250.71" xlink:href="#linear-gradient-15"/><linearGradient id="linear-gradient-20" x1="352.91" y1="250.71" x2="365.16" y2="250.71" xlink:href="#linear-gradient-14"/><linearGradient id="linear-gradient-21" x1="368.13" y1="250.71" x2="380.38" y2="250.71" xlink:href="#linear-gradient-15"/><linearGradient id="linear-gradient-22" x1="383.35" y1="250.71" x2="395.6" y2="250.71" xlink:href="#linear-gradient-14"/><linearGradient id="linear-gradient-23" x1="398.57" y1="250.71" x2="410.82" y2="250.71" xlink:href="#linear-gradient-15"/><linearGradient id="linear-gradient-24" x1="281.56" y1="254.85" x2="245.37" y2="233.95" xlink:href="#linear-gradient-14"/><linearGradient id="linear-gradient-25" x1="301.78" y1="243.89" x2="266.14" y2="223.3" xlink:href="#linear-gradient-14"/><linearGradient id="linear-gradient-26" x1="310.8" y1="242.97" x2="280.2" y2="225.31" xlink:href="#linear-gradient-14"/><linearGradient id="linear-gradient-27" x1="331.32" y1="240.1" x2="297.99" y2="220.86" xlink:href="#linear-gradient-14"/><linearGradient id="linear-gradient-28" x1="336.5" y1="236.89" x2="312.09" y2="222.79" xlink:href="#linear-gradient-14"/><linearGradient id="linear-gradient-29" x1="355.98" y1="228.7" x2="331.92" y2="214.81" xlink:href="#linear-gradient-14"/><linearGradient id="linear-gradient-30" x1="363.94" y1="223.52" x2="347.76" y2="214.18" xlink:href="#linear-gradient-14"/><linearGradient id="linear-gradient-31" x1="387.45" y1="225.64" x2="364.13" y2="212.18" xlink:href="#linear-gradient-14"/><linearGradient id="linear-gradient-32" x1="391.44" y1="220.83" x2="378.63" y2="213.43" xlink:href="#linear-gradient-14"/><linearGradient id="linear-gradient-33" x1="417.13" y1="223.46" x2="395.33" y2="210.87" xlink:href="#linear-gradient-14"/><linearGradient id="linear-gradient-34" x1="172.7" y1="242.79" x2="145.43" y2="215.52" gradientUnits="userSpaceOnUse"><stop offset="0" stop-color="#ffbfd4"/><stop offset="0.07" stop-color="#ffa9cf"/><stop offset="0.24" stop-color="#ff76c4"/><stop offset="0.41" stop-color="#ff4cbb"/><stop offset="0.57" stop-color="#ff2bb3"/><stop offset="0.73" stop-color="#ff13ae"/><stop offset="0.88" stop-color="#ff05ab"/><stop offset="1" stop-color="#f0a"/></linearGradient><linearGradient id="linear-gradient-35" x1="190.86" y1="46.88" x2="282.6" y2="46.88" xlink:href="#linear-gradient-3"/><linearGradient id="linear-gradient-36" x1="215.29" y1="205.16" x2="185.54" y2="175.41" xlink:href="#linear-gradient-34"/><linearGradient id="linear-gradient-37" x1="149.38" y1="165.41" x2="187.51" y2="165.41" gradientUnits="userSpaceOnUse"><stop offset="0" stop-color="#7b2aff"/><stop offset="1" stop-color="#1b00d4"/></linearGradient><linearGradient id="linear-gradient-38" x1="151.33" y1="146.99" x2="215.59" y2="146.99" xlink:href="#linear-gradient-37"/><linearGradient id="linear-gradient-39" x1="151.11" y1="93.07" x2="197.61" y2="93.07" xlink:href="#linear-gradient-3"/><linearGradient id="linear-gradient-40" x1="183.38" y1="49.96" x2="209.04" y2="49.96" gradientUnits="userSpaceOnUse"><stop offset="0.01" stop-color="#9a7fff"/><stop offset="1" stop-color="#fff"/></linearGradient><linearGradient id="linear-gradient-41" x1="186.17" y1="45.87" x2="191.53" y2="45.87" xlink:href="#linear-gradient-37"/><linearGradient id="linear-gradient-42" x1="179.91" y1="38.38" x2="212.08" y2="38.38" xlink:href="#linear-gradient-3"/><linearGradient id="linear-gradient-43" x1="175.86" y1="80.68" x2="219.65" y2="80.68" gradientUnits="userSpaceOnUse"><stop offset="0" stop-color="#1517ff"/><stop offset="0.03" stop-color="#1e21ff"/><stop offset="0.11" stop-color="#353dff"/><stop offset="0.2" stop-color="#4954ff"/><stop offset="0.31" stop-color="#5866ff"/><stop offset="0.43" stop-color="#6273ff"/><stop offset="0.6" stop-color="#687aff"/><stop offset="1" stop-color="#6a7cff"/></linearGradient><linearGradient id="linear-gradient-44" x1="211.62" y1="83.19" x2="237.82" y2="83.19" xlink:href="#linear-gradient-37"/><linearGradient id="linear-gradient-45" x1="374.2" y1="365.41" x2="373.58" y2="381.43" gradientUnits="userSpaceOnUse"><stop offset="0" stop-color="#0011bf"/><stop offset="1" stop-color="#7955ff"/></linearGradient><linearGradient id="linear-gradient-46" x1="386.4" y1="404.15" x2="391.09" y2="404.15" xlink:href="#linear-gradient-43"/><linearGradient id="linear-gradient-47" x1="310.38" y1="347.02" x2="357.97" y2="429.45" xlink:href="#linear-gradient-40"/><linearGradient id="linear-gradient-48" x1="322.55" y1="360.7" x2="352.25" y2="360.7" xlink:href="#linear-gradient-43"/><linearGradient id="linear-gradient-49" x1="316.28" y1="432.11" x2="349.58" y2="432.11" xlink:href="#linear-gradient-14"/><linearGradient id="linear-gradient-50" x1="351.06" y1="267.36" x2="407.23" y2="267.36" gradientUnits="userSpaceOnUse"><stop offset="0" stop-color="#18003f"/><stop offset="0.23" stop-color="#150058"/><stop offset="0.71" stop-color="#0d0097"/><stop offset="1" stop-color="#0800bf"/></linearGradient><linearGradient id="linear-gradient-51" x1="397.17" y1="322.31" x2="374.94" y2="300.08" xlink:href="#linear-gradient-40"/><linearGradient id="linear-gradient-52" x1="337.74" y1="296.56" x2="399.75" y2="296.56" xlink:href="#linear-gradient-14"/><linearGradient id="linear-gradient-53" x1="351.19" y1="243.48" x2="377.56" y2="269.85" xlink:href="#linear-gradient-40"/><linearGradient id="linear-gradient-54" x1="338.34" y1="341.31" x2="386.11" y2="424.05" xlink:href="#linear-gradient-40"/><linearGradient id="linear-gradient-55" x1="341.64" y1="432.79" x2="367.89" y2="432.79" xlink:href="#linear-gradient-14"/><linearGradient id="linear-gradient-56" x1="341.34" y1="363.3" x2="391.31" y2="363.3" xlink:href="#linear-gradient-43"/><linearGradient id="linear-gradient-57" x1="322.78" y1="303.69" x2="385.06" y2="303.69" gradientUnits="userSpaceOnUse"><stop offset="0" stop-color="#6afff4"/><stop offset="1" stop-color="#00e6e9"/></linearGradient><linearGradient id="linear-gradient-58" x1="222.33" y1="305.03" x2="269.88" y2="305.03" xlink:href="#linear-gradient-43"/><linearGradient id="linear-gradient-59" x1="196.21" y1="384.93" x2="216.97" y2="384.93" xlink:href="#linear-gradient-14"/><linearGradient id="linear-gradient-60" x1="194.87" y1="425.81" x2="229.59" y2="425.81" gradientUnits="userSpaceOnUse"><stop offset="0.01" stop-color="#9a7fff"/><stop offset="0.03" stop-color="#9f86ff"/><stop offset="0.16" stop-color="#bcabff"/><stop offset="0.3" stop-color="#d5c9ff"/><stop offset="0.45" stop-color="#e7e1ff"/><stop offset="0.61" stop-color="#f5f2ff"/><stop offset="0.78" stop-color="#fcfcff"/><stop offset="1" stop-color="#fff"/></linearGradient><linearGradient id="linear-gradient-61" x1="192.86" y1="433.19" x2="232.46" y2="433.19" xlink:href="#linear-gradient-43"/><linearGradient id="linear-gradient-62" x1="184.32" y1="368.45" x2="85.88" y2="311.61" xlink:href="#linear-gradient-45"/><linearGradient id="linear-gradient-63" x1="169.43" y1="404.15" x2="174.11" y2="404.15" xlink:href="#linear-gradient-43"/><linearGradient id="linear-gradient-64" x1="123.22" y1="404.15" x2="127.91" y2="404.15" xlink:href="#linear-gradient-43"/><linearGradient id="linear-gradient-65" x1="129.7" y1="376.65" x2="229.5" y2="376.65" xlink:href="#linear-gradient-14"/><linearGradient id="linear-gradient-66" x1="217.29" y1="424.61" x2="257.82" y2="424.61" xlink:href="#linear-gradient-60"/><linearGradient id="linear-gradient-67" x1="218.31" y1="431.9" x2="260.63" y2="431.9" xlink:href="#linear-gradient-43"/><linearGradient id="linear-gradient-68" x1="172.1" y1="256.44" x2="206.57" y2="256.44" xlink:href="#linear-gradient-40"/><linearGradient id="linear-gradient-69" x1="176.12" y1="248.57" x2="212.19" y2="248.57" xlink:href="#linear-gradient-50"/><linearGradient id="linear-gradient-70" x1="186.84" y1="311.4" x2="237.84" y2="311.4" xlink:href="#linear-gradient-40"/><linearGradient id="linear-gradient-71" x1="124.86" y1="311.14" x2="204.38" y2="311.14" gradientUnits="userSpaceOnUse"><stop offset="0" stop-color="#5560ff"/><stop offset="1" stop-color="#1517ff"/></linearGradient><linearGradient id="linear-gradient-72" x1="570.59" y1="233.76" x2="608.52" y2="233.76" xlink:href="#linear-gradient-57"/><linearGradient id="linear-gradient-73" x1="603.47" y1="242.32" x2="572.71" y2="224.56" gradientUnits="userSpaceOnUse"><stop offset="0.01" stop-color="#9a7fff"/><stop offset="0.03" stop-color="#9f86ff"/><stop offset="0.16" stop-color="#bdabff"/><stop offset="0.3" stop-color="#d5c9ff"/><stop offset="0.45" stop-color="#e7e1ff"/><stop offset="0.61" stop-color="#f5f2ff"/><stop offset="0.78" stop-color="#fcfcff"/><stop offset="1" stop-color="#fff"/></linearGradient><linearGradient id="linear-gradient-74" x1="552.48" y1="254.14" x2="604.04" y2="254.14" gradientUnits="userSpaceOnUse"><stop offset="0.01" stop-color="#94ceff"/><stop offset="0.33" stop-color="#97cfff"/><stop offset="0.52" stop-color="#9fd3fe"/><stop offset="0.68" stop-color="#addafd"/><stop offset="0.81" stop-color="#c1e3fb"/><stop offset="0.94" stop-color="#dbeff8"/><stop offset="1" stop-color="#eaf6f7"/></linearGradient><linearGradient id="linear-gradient-75" x1="588.87" y1="259.6" x2="566.43" y2="237.17" xlink:href="#linear-gradient-40"/><linearGradient id="linear-gradient-76" x1="568.27" y1="206.54" x2="534.11" y2="172.39" xlink:href="#linear-gradient-40"/><linearGradient id="linear-gradient-77" x1="513.92" y1="242.24" x2="461.29" y2="189.61" xlink:href="#linear-gradient-40"/><linearGradient id="linear-gradient-78" x1="524.83" y1="424.05" x2="552.45" y2="424.05" xlink:href="#linear-gradient-50"/><linearGradient id="linear-gradient-79" x1="563.75" y1="425.29" x2="593.41" y2="425.29" xlink:href="#linear-gradient-50"/><linearGradient id="linear-gradient-80" x1="526.43" y1="346.48" x2="575.8" y2="346.48" xlink:href="#linear-gradient-14"/><linearGradient id="linear-gradient-81" x1="539.75" y1="206.59" x2="564.53" y2="206.59" xlink:href="#linear-gradient-14"/><linearGradient id="linear-gradient-82" x1="507.54" y1="242.56" x2="585.96" y2="242.56" gradientUnits="userSpaceOnUse"><stop offset="0" stop-color="#ab94ff"/><stop offset="0.39" stop-color="#945bff"/><stop offset="0.98" stop-color="#6f00ff"/></linearGradient><linearGradient id="linear-gradient-83" x1="529.57" y1="179.31" x2="566.87" y2="179.31" xlink:href="#linear-gradient-50"/><linearGradient id="linear-gradient-84" x1="454.76" y1="311.4" x2="454.76" y2="252.7" xlink:href="#linear-gradient-37"/><linearGradient id="linear-gradient-85" x1="444.7" y1="311.4" x2="444.7" y2="230.31" xlink:href="#linear-gradient-37"/><linearGradient id="linear-gradient-86" x1="437.66" y1="308.05" x2="437.66" y2="259.39" xlink:href="#linear-gradient-37"/><linearGradient id="linear-gradient-87" x1="358.52" y1="323.83" x2="358.78" y2="346.02" xlink:href="#linear-gradient-40"/><linearGradient id="linear-gradient-88" x1="224.33" y1="388.74" x2="176.79" y2="388.74" xlink:href="#linear-gradient-43"/><linearGradient id="linear-gradient-89" x1="479.48" y1="388.74" x2="527.02" y2="388.74" xlink:href="#linear-gradient-43"/><linearGradient id="linear-gradient-90" x1="434.61" y1="311.4" x2="458.72" y2="311.4" xlink:href="#linear-gradient-57"/><linearGradient id="linear-gradient-91" x1="450.61" y1="306.07" x2="442.06" y2="291.27" xlink:href="#linear-gradient-57"/><linearGradient id="linear-gradient-92" x1="364.97" y1="95.47" x2="465.42" y2="95.47" xlink:href="#linear-gradient-37"/><linearGradient id="linear-gradient-93" x1="381.38" y1="121.17" x2="382.72" y2="121.17" xlink:href="#linear-gradient-14"/><linearGradient id="linear-gradient-94" x1="394.77" y1="115.45" x2="396.11" y2="115.45" xlink:href="#linear-gradient-14"/><linearGradient id="linear-gradient-95" x1="407.16" y1="110.35" x2="408.5" y2="110.35" xlink:href="#linear-gradient-14"/><linearGradient id="linear-gradient-96" x1="420.55" y1="112.28" x2="421.89" y2="112.28" xlink:href="#linear-gradient-14"/><linearGradient id="linear-gradient-97" x1="433.28" y1="108.35" x2="434.61" y2="108.35" xlink:href="#linear-gradient-14"/><linearGradient id="linear-gradient-98" x1="445.27" y1="103.6" x2="446.81" y2="103.6" xlink:href="#linear-gradient-14"/><linearGradient id="linear-gradient-99" x1="373.46" y1="120.45" x2="375.67" y2="120.45" gradientTransform="translate(168.56 -214.77) rotate(40.6)" gradientUnits="userSpaceOnUse"><stop offset="0.01" stop-color="#0022e9"/><stop offset="1" stop-color="#b37fff"/></linearGradient><linearGradient id="linear-gradient-100" x1="376.85" y1="105.14" x2="408" y2="105.14" gradientTransform="matrix(1, 0, 0, 1, 0, 0)" xlink:href="#linear-gradient-99"/><linearGradient id="linear-gradient-101" x1="409.18" y1="89.76" x2="413.42" y2="89.76" gradientTransform="matrix(1, 0, 0, 1, 0, 0)" xlink:href="#linear-gradient-99"/><linearGradient id="linear-gradient-102" x1="414.94" y1="92.08" x2="419.47" y2="92.08" gradientTransform="translate(313 -322.26) rotate(63.44)" xlink:href="#linear-gradient-99"/><linearGradient id="linear-gradient-103" x1="420.98" y1="94.45" x2="425.3" y2="94.45" gradientTransform="matrix(1, 0, 0, 1, 0, 0)" xlink:href="#linear-gradient-99"/><linearGradient id="linear-gradient-104" x1="426.53" y1="80.65" x2="458.04" y2="80.65" gradientTransform="matrix(1, 0, 0, 1, 0, 0)" xlink:href="#linear-gradient-99"/><linearGradient id="linear-gradient-105" x1="459.27" y1="66.91" x2="461.54" y2="66.91" gradientTransform="translate(134.01 -264.62) rotate(37.18)" xlink:href="#linear-gradient-99"/><linearGradient id="linear-gradient-106" x1="458.85" y1="66.36" x2="464.75" y2="66.36" gradientTransform="matrix(1, 0, 0, 1, 0, 0)" xlink:href="#linear-gradient-99"/><linearGradient id="linear-gradient-107" x1="473.85" y1="148.53" x2="516.98" y2="148.53" xlink:href="#linear-gradient-14"/><linearGradient id="linear-gradient-108" x1="497.03" y1="143.34" x2="507.81" y2="124.66" xlink:href="#linear-gradient-43"/><linearGradient id="linear-gradient-109" x1="270.05" y1="209.66" x2="242.92" y2="162.68" xlink:href="#linear-gradient-57"/><linearGradient id="linear-gradient-110" x1="269.64" y1="209.89" x2="242.52" y2="162.91" xlink:href="#linear-gradient-14"/><linearGradient id="linear-gradient-111" x1="-631.13" y1="-87.19" x2="-616.59" y2="-87.19" gradientTransform="translate(879.3 81.9) rotate(-17.48)" xlink:href="#linear-gradient-99"/></defs><title>资源 1</title><g id="图层_2" data-name="图层 2"><g id="Object"><path class="cls-1" d="M314.07,6.7S233-13.39,198.89,131.92s-34.15,17.42-42.86-15.4-26.78-32.14-39.51-26.78-13.39,62.94-8,95.76-6,39.51-12.73,38.84-44.2-31.48-60.94-20.76S1.34,239.07,45.54,281.26s59.6,50.23,54.24,62.28-53.57-14.73-59.6,7.37,52.23,42.86,52.23,54.91-45.53,8.71-38.84,20.76,116.53,1.34,128.58,6.7,32.14,16.74,86.39,10,46.87,2.68,36.16,2-41.52,7.37,9.37,6S427.92,450,437.29,444s21.43-13.39,55.59-12.05,54.24,2,54.91-4-51.57-7.37-52.24-12.73,48.89-9.37,75-14.06,51.56-16.07,24.11-32.14-82.37-12.06-84.38-30.14,32.81-21.43,54.24-74.33S584,150.68,533.06,154s-87.06,16.75-86.39-1.34,22.1-36.16,39.51-62.27,44.2-59.61,24.11-69-48.22,34.15-67.64,50.22-69.64,45.54-69,29.47.66-49.56-14.07-65.63S331.49,12.05,314.07,6.7Z"/><path class="cls-2" d="M262.18,133.27v-6a9,9,0,0,1,9-9h5.93a5.12,5.12,0,0,0,5.12-5.12v-4.59a9,9,0,0,1,9-9h33.48a9,9,0,0,1,9,9v.67a9,9,0,0,1-9,9h-2a9,9,0,0,0-9,9v.67a9,9,0,0,0,9,9H371a9,9,0,0,1,9,9v.67a9,9,0,0,1-9,9H253.13a9,9,0,0,1-9-9V146a9,9,0,0,1,9-9h5.37A3.68,3.68,0,0,0,262.18,133.27Z"/><rect class="cls-3" x="389.08" y="211.62" width="140.63" height="192.86" rx="31.76"/><rect class="cls-4" x="389.08" y="236.39" width="140.63" height="14.73"/><path class="cls-5" d="M507.27,265.52H426.76a.67.67,0,1,1,0-1.34h80.51a.67.67,0,0,1,0,1.34Z"/><path class="cls-5" d="M507.27,272.22H426.76a.67.67,0,1,1,0-1.34h80.51a.67.67,0,1,1,0,1.34Z"/><path class="cls-5" d="M507.27,281.6H426.76a.67.67,0,1,1,0-1.34h80.51a.67.67,0,1,1,0,1.34Z"/><path class="cls-5" d="M507.27,289.63H426.76a.67.67,0,1,1,0-1.34h80.51a.67.67,0,0,1,0,1.34Z"/><path class="cls-5" d="M507.27,297.67H426.76a.67.67,0,0,1,0-1.34h80.51a.67.67,0,0,1,0,1.34Z"/><rect class="cls-6" x="222.33" y="142.64" width="224.34" height="279.92" rx="9.86"/><rect class="cls-7" x="222.33" y="166.08" width="224.34" height="8.04"/><rect class="cls-5" x="246.44" y="192.2" width="180.14" height="2.01"/><path class="cls-8" d="M446.67,311.4V412.7a9.85,9.85,0,0,1-9.86,9.86H232.19a9.85,9.85,0,0,1-9.86-9.86V311.4Z"/><path class="cls-9" d="M203.81,201.57h18.52a0,0,0,0,1,0,0v221a0,0,0,0,1,0,0H179.47a0,0,0,0,1,0,0V225.91A24.34,24.34,0,0,1,203.81,201.57Z"/><path class="cls-10" d="M167.65,240.41h11.82a0,0,0,0,1,0,0V422.56a0,0,0,0,1,0,0H143.31a0,0,0,0,1,0,0V264.75A24.34,24.34,0,0,1,167.65,240.41Z"/><path class="cls-11" d="M131.49,282.6h11.82a0,0,0,0,1,0,0v140a0,0,0,0,1,0,0H107.15a0,0,0,0,1,0,0V306.94A24.34,24.34,0,0,1,131.49,282.6Z"/><path class="cls-12" d="M97.34,320.1h9.81a0,0,0,0,1,0,0V422.56a0,0,0,0,1,0,0H73a0,0,0,0,1,0,0V344.44A24.34,24.34,0,0,1,97.34,320.1Z"/><path class="cls-13" d="M61.84,361H73a0,0,0,0,1,0,0v61.61a0,0,0,0,1,0,0H37.5a0,0,0,0,1,0,0V385.29A24.34,24.34,0,0,1,61.84,361Z"/><path class="cls-14" d="M24.34,388.41H37.5a0,0,0,0,1,0,0v34.15a0,0,0,0,1,0,0H0a0,0,0,0,1,0,0v-9.81A24.34,24.34,0,0,1,24.34,388.41Z"/><rect class="cls-15" x="261.93" y="205.25" width="12.25" height="90.91"/><rect class="cls-16" x="276.56" y="205.25" width="12.25" height="90.91"/><rect class="cls-17" x="291.78" y="205.25" width="12.25" height="90.91"/><rect class="cls-18" x="307" y="205.25" width="12.25" height="90.91"/><rect class="cls-19" x="322.22" y="205.25" width="12.25" height="90.91"/><rect class="cls-20" x="337.43" y="205.25" width="12.25" height="90.91"/><rect class="cls-21" x="352.91" y="205.25" width="12.25" height="90.91"/><rect class="cls-22" x="368.13" y="205.25" width="12.25" height="90.91"/><rect class="cls-23" x="383.35" y="205.25" width="12.25" height="90.91"/><rect class="cls-24" x="398.57" y="205.25" width="12.25" height="90.91"/><polygon class="cls-25" points="261.93 205.25 274.18 205.25 274.18 263.87 261.93 288.85 261.93 205.25"/><polygon class="cls-26" points="276.56 205.25 288.81 205.25 288.81 266.36 276.56 260.46 276.56 205.25"/><polygon class="cls-27" points="291.78 205.25 304.03 205.25 304.03 254.7 291.78 265.8 291.78 205.25"/><polygon class="cls-28" points="307 205.25 319.25 205.25 319.25 261 307 253.72 307 205.25"/><polygon class="cls-29" points="322.22 205.25 334.46 205.25 334.46 240.42 322.22 259.1 322.22 205.25"/><polygon class="cls-30" points="337.43 205.25 349.69 205.25 349.69 239.61 337.43 237.81 337.43 205.25"/><polygon class="cls-31" points="352.91 205.25 365.16 205.25 365.16 221.4 352.91 236.12 352.91 205.25"/><polygon class="cls-32" points="368.13 205.25 380.38 205.25 380.38 237.88 368.13 223.78 368.13 205.25"/><polygon class="cls-33" points="383.36 205.25 395.6 205.25 395.6 213.62 383.36 234.13 383.36 205.25"/><polygon class="cls-34" points="410.82 205.25 410.82 234.38 398.57 213.16 398.57 205.25 410.82 205.25"/><path class="cls-35" d="M150.68,210.28l-2.23,30.13h26.63s.37-5.36-3-6-11.38-2-10.71-5.35S164.74,213,164.74,213Z"/><rect class="cls-36" x="190.86" width="91.74" height="93.75" rx="14.07"/><path class="cls-37" d="M190.86,170.1l-3.18,31.47h31.21s.76-5.36-1.92-6-12.05-2-13.39-4.68,2.68-18.76,2.68-18.76Z"/><path class="cls-38" d="M158,125.23s2.68,44.2,0,50.22-12,28.8-7.36,34.83L164.74,213a18.66,18.66,0,0,0,3.35-6.69c.67-3.35,8.7-20.76,9.37-27.46s10-60.94,10-60.94Z"/><path class="cls-39" d="M155.36,121.88s-6,12.05-3.35,18.08,5.36,8.71,20.09,6.7,24.11-1.34,22.1,3.35-7.36,12.72-6.69,15.4a10,10,0,0,0,3.35,4.69l15.4,2s3.35-2.67,4-6S217.64,142,215,138s-4.68-12.72-20.76-12.72S155.36,121.88,155.36,121.88Z"/><path class="cls-40" d="M187.51,58.26S170.1,56.92,165.41,71s-16.07,40.85-14.06,45.54,4,5.36,4,5.36l13.4,6,22.1-2.73s9.37-27.41,6-35.44S187.51,58.26,187.51,58.26Z"/><path class="cls-41" d="M185.5,42.86a2,2,0,0,0-2,2.68,30.12,30.12,0,0,0,2,5.35s-2,8,0,10.72,5.36,7.37,11.38,4.69,11.39-13.4,12.06-17.41-2-15.41-2-15.41l-14.74-.67Z"/><polygon class="cls-42" points="191.53 42.19 188.85 42.86 187.51 52.23 186.17 39.51 191.53 42.19"/><path class="cls-43" d="M197.55,26.12s12.06.67,12.73,12.72c0,0-.67,5.36,1.34,8s-2.68,4.68-9.38,3.35-18.75-7.37-21.43-9.38,1.34-1.34,2.68-2.68S182.82,26.79,197.55,26.12Z"/><path class="cls-44" d="M178.8,62.28s7.37-4.8,12.06,4.3,6.69,17.13,9.37,18.47,15.4-3.35,15.4-3.35l4,8.71s-12.72,12.72-20.09,9.37S178.8,83,177.46,78.35,174.11,67,178.8,62.28Z"/><path class="cls-45" d="M211.62,80.36l6.69,15.4s5.36-4,6.7-6.69,4.69-2,7.36-4,6-6.7,5.36-10.72-4-4.68-8-1.34-6,2-6,.67-.67-4-2-2.68,0,6-1.34,7.37S214.29,79,211.62,80.36Z"/><path class="cls-5" d="M266.86,21.09h-59.6a.67.67,0,1,1,0-1.33h59.6a.67.67,0,1,1,0,1.33Z"/><path class="cls-5" d="M266.86,29.8H215.3a.67.67,0,1,1,0-1.34h51.56a.67.67,0,0,1,0,1.34Z"/><path class="cls-5" d="M266.53,38.84H231.71a.67.67,0,0,1,0-1.34h34.82a.67.67,0,1,1,0,1.34Z"/><rect class="cls-46" x="350.91" y="367.65" width="46.21" height="5.36" rx="2.65"/><rect class="cls-47" x="386.4" y="373.01" width="4.69" height="62.28"/><path class="cls-48" d="M354.92,421.22,349.58,430l-4,6.62a76,76,0,0,1-16.07,2c-8,0-10.05,0-12.73-1.34s6.7-6,13.4-9.37a10.77,10.77,0,0,0,3.16-2.33c3.29-3.56,2.86-8.51,2.86-11.73,0-1.95-2.81-15.13-5.86-29.3-3.28-15.17-6.84-31.48-7.53-36.33-1.34-9.38,3.35-11.39,8.8-11.39s19.22.61,19.22.61l1.45,45.6Z"/><path class="cls-49" d="M352.25,383.05s-10.05-1.34-14.74-1.34a10,10,0,0,0-7.2,2.85c-3.28-15.17-6.84-31.48-7.53-36.33-1.34-9.38,3.35-11.39,8.8-11.39s19.22.61,19.22.61Z"/><path class="cls-50" d="M349.58,430l-4,6.62a76,76,0,0,1-16.07,2c-8,0-10.05,0-12.73-1.34s6.7-6,13.4-9.37a10.77,10.77,0,0,0,3.16-2.33,9.83,9.83,0,0,1,4.87,2.33C340.47,430.21,345.6,430.32,349.58,430Z"/><path class="cls-51" d="M378.36,229s-21.43-7.37-25.44,1.34-.67,12.72,2,14.06,17.42,27.46,17.42,27.46l21.43,15.4-1.34,19.42a7.69,7.69,0,0,0,10.71-.67c5.36-5.36.67-12.06.67-12.06s6.7-1.33,1.34-12.05-19.42-16.07-20.09-22.77S387.07,236.39,378.36,229Z"/><path class="cls-52" d="M397.11,294.65v20.09c0,4.69-.22,11.39-6.13,11.39H373.39L377,298Z"/><path class="cls-53" d="M371.67,267.2s-22.1,5.36-24.78,8.7-7.37,32.15-8,40.18a101.07,101.07,0,0,1-1.11,10.05h41.67l.29-23.44s13.4-4,17.41-1.34,3.35-22.1-1.34-26.12S381,265.86,371.67,267.2Z"/><path class="cls-54" d="M354.25,240.41s7.37,2,12.06,2,9.37.67,9.37,6-3.34,17.66,0,18.54c0,0,0,7.57-5.35,8.91s-13.63-1.16-11.17-5.26a10.46,10.46,0,0,0,2.46-6.12s-6,0-7.37-7.37S354.25,240.41,354.25,240.41Z"/><path class="cls-55" d="M363.37,387.74c-.07,11-.06,22.22.26,24.78.4,3.18,2.22,9.92,3.35,15.14.76,3.56,1.21,6.41.67,7-1.34,1.33-10.72,4.68-18.75,4.68s-8.71-.67-5.36-4.68c1.9-2.29,4-4.57,5.37-7.95a22.81,22.81,0,0,0,1.33-10.14c-.28-4.11-1.68-15-3.28-26.78-2.31-17-5-36-5.43-39.51-.67-6,.18-13.4,6.12-13.4h40.53l.9,1.34s7.36,26.79-4.69,29.47a26.66,26.66,0,0,1-20.76-4S363.45,375.58,363.37,387.74Z"/><path class="cls-56" d="M367.65,434.62c-1.34,1.33-10.72,4.68-18.75,4.68s-8.71-.67-5.36-4.68c1.9-2.29,4-4.57,5.37-7.95a5.44,5.44,0,0,1,2.89-.31,27.14,27.14,0,0,1,7.81,2.9s4.9,0,7.37-1.6C367.74,431.22,368.19,434.07,367.65,434.62Z"/><path class="cls-57" d="M384.39,367.65a26.66,26.66,0,0,1-20.76-4s-.18,11.95-.26,24.11c0,0-5.77-2-8.45-2s-8,4-8,4c-2.31-17-5-36-5.43-39.51-.67-6,.18-13.4,6.12-13.4h40.53l.9,1.34S396.44,365,384.39,367.65Z"/><rect class="cls-58" x="322.78" y="281.26" width="62.28" height="44.87" rx="6.9"/><path class="cls-5" d="M348.23,303.36a5.36,5.36,0,1,1,5.36,5.36A5.36,5.36,0,0,1,348.23,303.36Z"/><polygon class="cls-59" points="222.33 323.45 257.82 323.45 268.54 283.94 269.88 283.94 258.93 325.71 222.33 326.12 222.33 323.45"/><path class="cls-60" d="M217,363s-5.12,32.22-6.71,50.63l-14-1.36v-56Z"/><path class="cls-61" d="M229.59,439.38l-34.72-.75,1.34-14.06V412.23l14,1.36c-.56,6.49-.68,11.27,0,12.32C213,429.93,229.59,439.38,229.59,439.38Z"/><path class="cls-62" d="M211.62,425.24s-4.69,4-8.71,4-8-3.35-8-3.35l-2,14.73,39.6.5-.09-3.18Z"/><path class="cls-63" d="M124.67,367.65a2.68,2.68,0,0,1-2.54-1.84c-3.67-11.19-10.39-33.05-12.3-48.39-2.68-21.43-1.34-36.83-4-38.84s-3.35,15.4-2,42.19c1.12,22.49,7.44,44,9.44,50.37a2.67,2.67,0,0,0,2.55,1.87h64.35a2.68,2.68,0,0,0,2.68-2.68h0a2.68,2.68,0,0,0-2.68-2.68Z"/><rect class="cls-64" x="169.43" y="373.01" width="4.69" height="62.28"/><rect class="cls-65" x="123.22" y="373.01" width="4.69" height="62.28"/><path class="cls-66" d="M229.5,409.84l-12.21,3.94c-3.22-16.91-8.92-44.74-11.7-46.13-4-2-47.33,0-47.33,0s-21.65,2-25.67-8.71a42.35,42.35,0,0,1-2.67-19.42l26.78,2s50.23-4,55.58,0,9.38,17.41,12.06,31.48C226,381.74,227.67,398,229.5,409.84Z"/><path class="cls-67" d="M257.82,437.29c0,2.68-37.5,2-37.5,2l-.67-12.72s-.94-5.34-2.36-12.8l12.21-3.94c1.11,7.21,2.28,12.79,3.54,14.06C236.39,427.25,257.82,434.62,257.82,437.29Z"/><path class="cls-68" d="M235.05,422.56s-3.34,4.69-6.69,5.36-10.05-2-10.05-2l.67,14.73s25.45,1.34,34.15,0,8-3.35,6.7-5.36S235.05,422.56,235.05,422.56Z"/><path class="cls-69" d="M202.24,241.75c2.68,2.68,6,6.7,3.35,17.41s-2.68,14.06-8,12.73a36.29,36.29,0,0,0-7.36-1.34l-5.36,3.34-12.73-3.34s8.71-8,8.71-12.73-4.69-18.08,4-18.75S202.24,241.75,202.24,241.75Z"/><path class="cls-70" d="M206.26,237.73c4,2.68,8,7.37,4.69,8.71s-10.72-1.34-12.06,1.34-4,12.72-4,12.72,2-10,0-10.71-5.35,3.34-4,6.69-4.69,6.7-4.69,6.7l-6.54-1.72s-.83-7-2.17-10.33-2.68-15.41,1.34-16.75S202.24,235.05,206.26,237.73Z"/><path class="cls-71" d="M186.84,302.69v16.07c0,2.68.15,6.54,6.43,7s34.12.41,34.12.41,11.68-2.68,10.34-6-2.68-10.71-6.69-8-4.69,4.68-10,5.35-21.43-2-21.43-2l.67-18.75Z"/><path class="cls-72" d="M186.84,268.54s-20.76-2.68-32.82,8.7-25.44,36.17-28.12,52.24.1,22.88,5.07,24.16,19.71-.72,26.4-5.41,6.7-7.76,12.06-7.56,4.68-6.51,2.67-9.18,6-22.1,8.71-26.79,4,6.7,4,6.7a12.43,12.43,0,0,0,9.37,0c5.36-2,10.05-7.37,10.05-7.37a49.47,49.47,0,0,1,0-11.38C204.92,285.28,203.58,270.55,186.84,268.54Z"/><path class="cls-73" d="M572.14,220.81l35-6.87a1.14,1.14,0,0,1,1.36,1.28l-4.35,32.38a1.16,1.16,0,0,1-1,1l-31.27,5a1.15,1.15,0,0,1-1.33-1.17l.62-30.5A1.16,1.16,0,0,1,572.14,220.81Z"/><path class="cls-74" d="M574.18,222.82l29.63-5.55a1.15,1.15,0,0,1,1.35,1.29l-3.68,27a1.17,1.17,0,0,1-1,1l-25.94,4.32a1.15,1.15,0,0,1-1.34-1.14V224A1.16,1.16,0,0,1,574.18,222.82Z"/><path class="cls-75" d="M604,250.15v-1.7l-51.56,8.7v2.68l50.6-8.54A1.17,1.17,0,0,0,604,250.15Z"/><path class="cls-76" d="M579.26,236.39c2,4,12.06,20.76,8,24.78s-12,2.24-15.38-7.58a131.42,131.42,0,0,1-4.71-17.2Z"/><path class="cls-77" d="M539.08,167.42c-3.34,4-4,28.12-1.34,31.47s7.37,2,7.37,2l1.34,14.73,14.73-2s-2.68-11.38-1.34-17.41,8.71-22.77,1.34-27.45S539.08,167.42,539.08,167.42Z"/><path class="cls-78" d="M516.31,220.32s-2.67,2.68-12,1.34S478.14,213,478.14,213s-2-6.69-.67-9.37,0-8.71-2-4-2,7.37-4,6.7-10.72-15.4-12.73-14.06,4.69,10.71,4,12.72-.67,10,1.34,12.05,37.5,18.08,37.5,18.08,10.72,2.68,19.42-.67S516.31,220.32,516.31,220.32Z"/><path class="cls-79" d="M550.47,413.86s3.35,20.76,1.34,21.42-26.3,0-26.3,0l-.68-2.39s11.57-5,12.24-8.32,3.35-12.05,3.35-12.05Z"/><path class="cls-80" d="M563.86,414.53s-.67,19.42,1.34,20.75,26.79.67,28.13,0-13.4-5.35-16.08-8.7-4-12.05-4-12.05Z"/><path class="cls-81" d="M527,273.89s-1.34,27.46,0,34.16,2.68,27.45,5.36,47.54,6,48.22,4.68,52.24-1.33,10.71-1.33,10.71,11.06,5.57,15.57,1.11-.17-13.16-.17-13.16,1.34-24.11-.67-34.15-2-62.28,0-62.95,3.35,44.2,5.35,49.55,1.34,25.45,2.68,34.83-.67,28.79,3.35,30.13,10.28.05,12.84-3-.11-7.72-.11-11.07.67-33.49-2-45.54,2-53.57,1.34-63.62-6.7-32.14-6.7-32.14H527Z"/><path class="cls-82" d="M562.52,201.57s-18.08,0-20.09,2-2.68,8-2.68,8l24.78-.67Z"/><path class="cls-83" d="M565.87,208.27a24.21,24.21,0,0,0-12-2c-6.7.67-20.76,4-27.46,6s-18.08,2-18.75,4.68,3.35,22.1,8,22.77,10.72-1.34,10.72-1.34-8.71,29.47-5.36,33.49,5.81,7.08,5.81,7.08,14.28-2.4,24.33-2.4,18.22.34,18.22.34,4.55-1.68,3.88-5-2.65-15.12-2.65-15.12S586,252.47,586,244.43c0,0-4.69-9.38-6-14.06s-1.34-14.07-6-17.42A43.18,43.18,0,0,0,565.87,208.27Z"/><path class="cls-84" d="M559.17,164.74s-7.36-3.35-14.73-2-16.07.67-14.73,8.71c1.17,7,5.33,5.72,6.68,7.88s3.36,10.87,3.36,10.87-2.68-8.71-.67-10.05,4.69,1.34,4.69,4-.67,8,2.68,10,13.39,2,13.39,2,3.35-8,4.69-10S571.23,171.44,559.17,164.74Z"/><path class="cls-85" d="M446.67,311.4a71.91,71.91,0,0,0,6-27.46c0-14.73,11.38-20.76,10-28.13s-12.72-1.34-12.05,14.74.67,15.4-.67,22.76S446.67,311.4,446.67,311.4Z"/><path class="cls-86" d="M450,309.39s2-24.11-2-32.82-8-22.1-7.37-28.79,6.7-5.36,8.71-10.72-5.36-11.38-8.71-1.34-1.34,22.1,1.34,29.47,5.36,11.38,6,16.07.67,30.14.67,30.14Z"/><path class="cls-87" d="M444,306.71s6-10.72.67-19.42-8-14.07-14.73-16.74-1.34-16.75,2.68-8.71,4.68,10.72,7.36,14.73,9.1,10.75,8.57,17.77a53,53,0,0,1-3.21,13.71Z"/><rect class="cls-88" x="176.79" y="326.13" width="363.63" height="10.71" rx="5.31"/><polygon class="cls-89" points="224.34 336.84 184.83 440.64 176.79 440.64 206.16 336.84 224.34 336.84"/><polygon class="cls-90" points="479.48 336.84 518.99 440.64 527.02 440.64 497.66 336.84 479.48 336.84"/><path class="cls-91" d="M434.61,296.66h24.11a0,0,0,0,1,0,0v17.52a11.94,11.94,0,0,1-11.94,11.94h-.23a11.94,11.94,0,0,1-11.94-11.94V296.66A0,0,0,0,1,434.61,296.66Z"/><rect class="cls-92" x="431.27" y="296.66" width="30.14" height="4.02" rx="1.99"/><path class="cls-93" d="M465.42,128.22h0a1,1,0,0,0-1-1l-95.05.07a1,1,0,0,1-1-1V62.63a1,1,0,0,0-1-1H366a1,1,0,0,0-1,1v64.65h0v2h0v.08l99.43-.08A1,1,0,0,0,465.42,128.22Z"/><polygon class="cls-94" points="382.72 115.44 382.72 126.9 381.38 126.9 381.38 116.59 382.72 115.44"/><polygon class="cls-95" points="396.11 104 396.11 126.9 394.77 126.9 394.77 105.14 396.11 104"/><polygon class="cls-96" points="408.5 93.46 408.5 127.24 407.16 127.24 407.16 94.6 408.5 93.46"/><polygon class="cls-97" points="421.89 98.07 421.89 127.24 420.55 127.24 420.55 97.32 421.89 98.07"/><polygon class="cls-98" points="434.62 89.45 434.62 127.24 433.28 127.24 433.28 90.45 434.62 89.45"/><polygon class="cls-99" points="446.81 79.97 446.81 127.24 445.27 127.24 445.27 81.46 446.81 79.97"/><rect class="cls-100" x="373.39" y="120.11" width="2.34" height="0.67" transform="translate(11.79 272.76) rotate(-40.6)"/><path class="cls-101" d="M377.29,118.55l-.44-.5,3.77-3.24.44.51Zm5.39-4.61-.44-.51,3.77-3.24.44.51Zm5.38-4.62-.43-.51,3.77-3.23.44.5Zm5.39-4.62-.43-.51,3.77-3.23.43.51Zm5.39-4.62-.44-.51,3.78-3.23.43.51Zm5.39-4.62-.44-.5,3.77-3.24.44.51Z"/><polygon class="cls-102" points="409.62 90.84 409.18 90.34 411.13 88.67 413.42 89.81 413.12 90.41 411.23 89.47 409.62 90.84"/><rect class="cls-103" x="416.87" y="89.71" width="0.67" height="4.73" transform="translate(148.28 424.07) rotate(-63.44)"/><polygon class="cls-104" points="423.27 95.49 420.99 94.34 421.28 93.75 423.19 94.7 424.9 93.41 425.3 93.94 423.27 95.49"/><path class="cls-105" d="M426.94,92.7l-.41-.53,3.82-2.9.41.54Zm5.45-4.13L432,88l3.82-2.89.4.53Zm5.46-4.14-.4-.53,3.82-2.9.4.53Zm5.46-4.14-.41-.53,3.82-2.89.41.53Zm5.45-4.13-.4-.54,3.82-2.89.4.53ZM454.22,72l-.41-.53,3.82-2.9.41.54Z"/><rect class="cls-106" x="459.24" y="66.58" width="2.34" height="0.67" transform="translate(53.14 291.82) rotate(-37.18)"/><polygon class="cls-107" points="462.44 69.1 464.75 63.62 458.85 64.36 462.44 69.1"/><path class="cls-108" d="M517,148.53A21.57,21.57,0,1,1,495.42,127v21.57L513,136.07A21.46,21.46,0,0,1,517,148.53Z"/><path class="cls-109" d="M515.4,131.32l-17.61,12.46V122.21A21.56,21.56,0,0,1,515.4,131.32Z"/><path class="cls-110" d="M256.48,159.05a27.12,27.12,0,1,0,27.12,27.12A27.12,27.12,0,0,0,256.48,159.05Zm.34,45.87a18.42,18.42,0,1,1,18.41-18.42A18.42,18.42,0,0,1,256.82,204.92Z"/><path class="cls-111" d="M272.25,196.55a18.41,18.41,0,1,1-2.75-23.4l6.16-6.16a27.12,27.12,0,1,0,3.47,34.1Z"/><path class="cls-112" d="M254.7,193.91l-4.1-7.45a1.48,1.48,0,0,1,.4-1.92,1.41,1.41,0,0,1,2,.49l2.55,4.63a.15.15,0,0,0,.27,0l4.7-11.73a1.39,1.39,0,0,1,1.82-.78,1.41,1.41,0,0,1,.78,1.82l-5.93,14.8A1.38,1.38,0,0,1,254.7,193.91Z"/></g></g></svg>