<?xml version="1.0" encoding="UTF-8"?>
<svg width="512px" height="512px" viewBox="0 0 512 512" version="1.1" xmlns="http://www.w3.org/2000/svg" xmlns:xlink="http://www.w3.org/1999/xlink">
    <!-- Generator: Sketch 55.2 (78181) - https://sketchapp.com -->
    <title>矩形</title>
    <desc>Created with Sketch.</desc>
    <g id="页面1" stroke="none" stroke-width="1" fill="none" fill-rule="evenodd">
        <path d="M41.0221632,0.5 C28.0925795,0.5 22.4503966,1.5895558 16.6062682,4.71502986 C11.4785876,7.45734344 7.45734344,11.4785876 4.71502986,16.6062682 C1.5895558,22.4503966 0.5,28.0925795 0.5,41.0221632 L0.5,470.977837 C0.5,483.90742 1.5895558,489.549603 4.71502986,495.393732 C7.45734344,500.521412 11.4785876,504.542657 16.6062682,507.28497 C22.4503966,510.410444 28.0925795,511.5 41.0221632,511.5 L470.977837,511.5 C483.90742,511.5 489.549603,510.410444 495.393732,507.28497 C500.521412,504.542657 504.542657,500.521412 507.28497,495.393732 C510.410444,489.549603 511.5,483.90742 511.5,470.977837 L511.5,41.0221632 C511.5,28.0925795 510.410444,22.4503966 507.28497,16.6062682 C504.542657,11.4785876 500.521412,7.45734344 495.393732,4.71502986 C489.549603,1.5895558 483.90742,0.5 470.977837,0.5 L41.0221632,0.5 Z" id="矩形" stroke="#979797"></path>
    </g>
</svg>